<?xml version="1.0" encoding="utf-8"?>
<svg version="1.1" id="Laag_1" xmlns="http://www.w3.org/2000/svg" xmlns:xlink="http://www.w3.org/1999/xlink" x="0px" y="0px"
	 viewBox="0 0 448 512" style="enable-background:new 0 0 448 512;" xml:space="preserve" fill="#7c9ac0;">
<path class="st0" fill="#7c9ac0" d="M66.6,146l0-31.4c0-13.3,10.7-24,24-24l274.9-0.1c13.3,0,24,10.7,24,24v274.9c0,13.3-10.7,24-24,24H334
	c-13.4,0-24.3-11.1-24-24.5l4-166.4L110.8,425.7c-9.4,9.4-24.5,9.4-33.9,0l-22.6-22.6c-9.4-9.4-9.4-24.5,0-33.9L257.5,166l-166.4,4
	C77.6,170.3,66.5,159.5,66.6,146L66.6,146z"/>
</svg>
